<svg xmlns="http://www.w3.org/2000/svg" width="1600" height="700" viewBox="0 0 1600 700">
  <defs>
    <linearGradient id="bg" x1="0" x2="1" y1="0" y2="1">
      <stop offset="0" stop-color="#031525"/>
      <stop offset="0.55" stop-color="#0b3a5b"/>
      <stop offset="1" stop-color="#0f766e"/>
    </linearGradient>
    <pattern id="grid" width="80" height="80" patternUnits="userSpaceOnUse">
      <path d="M80 0H0V80" fill="none" stroke="#ffffff" stroke-opacity="0.08" stroke-width="1"/>
    </pattern>
  </defs>
  <rect width="1600" height="700" fill="url(#bg)"/>
  <rect width="1600" height="700" fill="url(#grid)"/>
  <path d="M0 530 C220 460 310 620 525 535 S860 430 1025 520 S1320 650 1600 505 L1600 700 L0 700 Z" fill="#38bdf8" opacity="0.12"/>
  <path d="M0 585 C250 525 380 685 600 595 S960 495 1160 585 S1410 650 1600 575 L1600 700 L0 700 Z" fill="#a7f3d0" opacity="0.10"/>
  <circle cx="1280" cy="130" r="48" fill="#fef3c7" opacity="0.65"/>
  <g stroke="#e0f2fe" stroke-width="2" opacity="0.45">
    <path d="M190 155l160 70 150-90 185 110 155-80" fill="none"/>
    <circle cx="190" cy="155" r="6" fill="#e0f2fe"/><circle cx="350" cy="225" r="6" fill="#e0f2fe"/><circle cx="500" cy="135" r="6" fill="#e0f2fe"/><circle cx="685" cy="245" r="6" fill="#e0f2fe"/><circle cx="840" cy="165" r="6" fill="#e0f2fe"/>
  </g>
  <text x="76" y="640" font-family="Georgia, serif" font-size="38" fill="#ffffff" opacity="0.55">Remote Sensing • Multimodal Fusion • Low-level Vision</text>
</svg>
